HIERARCHY
ROOT Hips
{
  OFFSET 38.5825 92.6465 14.9016
  CHANNELS 6 Xposition Yposition Zposition Zrotation Xrotation Yrotation
  JOINT spine
  {
    OFFSET 0 7.4756 0.429885
    CHANNELS 3 Zrotation Xrotation Yrotation
    JOINT spine1
    {
      OFFSET 0 9.92301 0
      CHANNELS 3 Zrotation Xrotation Yrotation
      JOINT spine2
      {
        OFFSET 0 9.50804 0
        CHANNELS 3 Zrotation Xrotation Yrotation
        JOINT Neck
        {
          OFFSET 0 24.4111 1.16384
          CHANNELS 3 Zrotation Xrotation Yrotation
          JOINT Head
          {
            OFFSET 0 7.37523 0
            CHANNELS 3 Zrotation Xrotation Yrotation
            End Site
            {
              OFFSET 0 17.8522 -5.88741
            }
          }
        }
        JOINT RightShoulder
        {
          OFFSET -4.00356 10.2679 -0.557468
          CHANNELS 3 Zrotation Xrotation Yrotation
          JOINT RightArm
          {
            OFFSET 0 13.4673 0
            CHANNELS 3 Zrotation Xrotation Yrotation
            JOINT RightArmRoll
            {
              OFFSET 0 6.79857 0
              CHANNELS 3 Zrotation Xrotation Yrotation
              JOINT RightForeArm
              {
                OFFSET 0 19.8018 0
                CHANNELS 3 Zrotation Xrotation Yrotation
                JOINT RightForeArmRoll
                {
                  OFFSET 0 7.62905 0
                  CHANNELS 3 Zrotation Xrotation Yrotation
                  JOINT RightHand
                  {
                    OFFSET 0 15.3098 0
                    CHANNELS 3 Zrotation Xrotation Yrotation
                    End Site
                    {
                      OFFSET 0 0 0
                    }
                  }
                }
              }
            }
          }
        }
        JOINT LeftShoulder
        {
          OFFSET 4.00356 10.2679 -0.557468
          CHANNELS 3 Zrotation Xrotation Yrotation
          JOINT LeftArm
          {
            OFFSET 0 13.4673 0
            CHANNELS 3 Zrotation Xrotation Yrotation
            JOINT LeftArmRoll
            {
              OFFSET 0 6.79857 0
              CHANNELS 3 Zrotation Xrotation Yrotation
              JOINT LeftForeArm
              {
                OFFSET 0 19.8018 0
                CHANNELS 3 Zrotation Xrotation Yrotation
                JOINT LeftForeArmRoll
                {
                  OFFSET 0 7.62905 0
                  CHANNELS 3 Zrotation Xrotation Yrotation
                  JOINT LeftHand
                  {
                    OFFSET 0 15.3098 0
                    CHANNELS 3 Zrotation Xrotation Yrotation
                    End Site
                    {
                      OFFSET 0 0 0
                    }
                  }
                }
              }
            }
          }
        }
      }
    }
  }
  JOINT RightUpLeg
  {
    OFFSET -6.62609 -1.21505 -1.01927
    CHANNELS 3 Zrotation Xrotation Yrotation
    JOINT RightUpLegRoll
    {
      OFFSET 0 17.9517 0
      CHANNELS 3 Zrotation Xrotation Yrotation
      JOINT RightLeg
      {
        OFFSET 0 -22.2304 0
        CHANNELS 3 Zrotation Xrotation Yrotation
        JOINT RightLegRoll
        {
          OFFSET 0 22.3032 0
          CHANNELS 3 Zrotation Xrotation Yrotation
          JOINT RightFoot
          {
            OFFSET 0 18.5636 0
            CHANNELS 3 Zrotation Xrotation Yrotation
            JOINT RightToeBase
            {
              OFFSET 0 15.5183 0
              CHANNELS 3 Zrotation Xrotation Yrotation
              End Site
              {
                OFFSET 0.00657761 7.51538 -0.866263
              }
            }
          }
        }
      }
    }
  }
  JOINT LeftUpLeg
  {
    OFFSET 6.62609 -1.21505 -1.01927
    CHANNELS 3 Zrotation Xrotation Yrotation
    JOINT LeftUpLegRoll
    {
      OFFSET 0 17.9518 0
      CHANNELS 3 Zrotation Xrotation Yrotation
      JOINT LeftLeg
      {
        OFFSET 0 22.2303 0
        CHANNELS 3 Zrotation Xrotation Yrotation
        JOINT LeftLegRoll
        {
          OFFSET 0 22.5093 0
          CHANNELS 3 Zrotation Xrotation Yrotation
          JOINT LeftFoot
          {
            OFFSET 0 18.3575 0
            CHANNELS 3 Zrotation Xrotation Yrotation
            JOINT LeftToeBase
            {
              OFFSET 0 15.5183 0
              CHANNELS 3 Zrotation Xrotation Yrotation
              End Site
              {
                OFFSET -0.029478 7.51538 -0.866263
              }
            }
          }
        }
      }
    }
  }
}
MOTION
Frames: 9
Frame Time: 0.00208333
42.3634 93.2886 12.8785 1.02589 2.72751 68.7039 -0.155712 -0.375563 0.338356 -0.307118 3.25081 0.695619 -0.315794 4.89582 0.701514 -19.467 -10.3232 -4.08778 17.3071 9.87197 -5.19394 50.3538 -4.97332 -2.503 168.464 46.6476 -39.1319 -3.34781e-006 -6.43749e-005 6.82532e-006 8.95964 15.1143 -3.35351 -2.37254e-005 -4.90759e-005 -2.99999 8.0291 -4.9514 0.697685 -75.3292 -1.77279 2.68335 -55.0698 44.9273 -6.6237 4.6444e-006 4.63005e-006 5.45929e-006 -22.3026 45.3156 11.8358 3.96674e-006 3.23043e-006 3.00001 -8.0289 -4.9514 -0.697675 179.932 0.313041 -0.841115 180 7.01544e-015 178.91 177.993 9.74483 179.727 -2.26506e-006 1.79101e-005 0.204527 -20.5451 70.2383 21.5951 8.20301 26.0125 -4.0823 -179.911 10.9993 6.07278 4.54188e-006 -4.6773e-006 -0.963411 1.714 -12.4634 0.618417 2.20926e-006 -2.10354e-006 0.000193956 17.4776 66.1513 -18.1021 -8.14552 25.2321 3.49159 
42.3279 93.2776 12.9113 1.02389 2.74039 68.7866 -0.156287 -0.373792 0.338818 -0.308099 3.25435 0.696606 -0.316795 4.89935 0.702511 -19.4414 -10.2928 -4.06221 17.2696 9.82844 -5.16516 50.2816 -4.9827 -2.50475 168.359 46.5828 -39.261 -3.34781e-006 -6.43749e-005 6.82532e-006 9.13378 15.3001 -3.38825 -2.37254e-005 -4.90759e-005 -2.99999 8.0291 -4.9514 0.697685 -75.2416 -1.79556 2.68564 -55.0829 44.9336 -6.6491 4.6444e-006 4.63005e-006 5.45929e-006 -22.3074 45.0033 11.7339 3.96674e-006 3.23043e-006 3.00001 -8.0289 -4.9514 -0.697675 179.949 0.314124 -0.848908 180 7.01544e-015 178.91 177.988 9.72903 179.729 -2.26506e-006 1.79101e-005 0.204496 -20.5434 70.2372 21.594 8.2025 26.0054 -4.07686 -179.936 11.064 6.04817 4.54188e-006 -4.6773e-006 -0.962657 1.65473 -12.5555 0.615395 2.20926e-006 -2.10354e-006 -0.004258 17.4866 66.1684 -18.115 -8.14552 25.2321 3.49159 
42.2699 93.2744 12.9282 1.02123 2.75332 68.8698 -0.156813 -0.371944 0.339239 -0.308955 3.25804 0.697504 -0.317669 4.90304 0.703417 -19.4167 -10.2648 -4.03662 17.2314 9.78615 -5.13623 50.2083 -4.99232 -2.50659 168.257 46.516 -39.3808 -3.34781e-006 -6.43749e-005 6.82532e-006 9.30321 15.491 -3.42381 -2.37254e-005 -4.90759e-005 -2.99999 8.0291 -4.9514 0.697685 -75.152 -1.81813 2.68766 -55.0976 44.9397 -6.6752 4.6444e-006 4.63005e-006 5.45929e-006 -22.3128 44.692 11.634 3.96674e-006 3.23043e-006 3.00001 -8.0289 -4.9514 -0.697675 179.966 0.315695 -0.856751 180 7.01544e-015 178.91 177.982 9.71269 179.73 -2.26506e-006 1.79101e-005 0.204483 -20.5415 70.236 21.5927 8.20198 25.9981 -4.07116 -179.962 11.1315 6.02436 4.54188e-006 -4.6773e-006 -0.961906 1.59612 -12.6503 0.612604 2.20926e-006 -2.10354e-006 -0.00876888 17.496 66.1857 -18.1281 -8.14552 25.2321 3.49159 
42.2448 93.2644 12.9573 1.01808 2.76622 68.9534 -0.157304 -0.370042 0.339633 -0.309722 3.26183 0.69834 -0.318454 4.90684 0.704259 -19.3927 -10.2386 -4.01103 17.1928 9.74475 -5.10719 50.1344 -5.00212 -2.50851 168.155 46.4479 -39.4941 -3.34781e-006 -6.43749e-005 6.82532e-006 9.46943 15.6854 -3.45999 -2.37254e-005 -4.90759e-005 -2.99999 8.0291 -4.9514 0.697685 -75.061 -1.84055 2.68948 -55.1134 44.9456 -6.70179 4.6444e-006 4.63005e-006 5.45929e-006 -22.3192 44.3813 11.5361 3.96674e-006 3.23043e-006 3.00001 -8.0289 -4.9514 -0.697675 179.982 0.317607 -0.864627 180 7.01544e-015 178.91 177.977 9.69602 179.731 -2.26506e-006 1.79101e-005 0.204481 -20.5395 70.2346 21.5914 8.20144 25.9904 -4.06528 -179.989 11.2008 6.00111 4.54188e-006 -4.6773e-006 -0.961157 1.53797 -12.7471 0.609975 2.20926e-006 -2.10354e-006 -0.013321 17.5055 66.2032 -18.1414 -8.14552 25.2321 3.49159 
42.1815 93.2607 12.9745 1.01464 2.77902 69.0374 -0.157776 -0.36811 0.34001 -0.310439 3.26569 0.699141 -0.319187 4.91069 0.705065 -19.3692 -10.2133 -3.98543 17.154 9.70385 -5.07809 50.0601 -5.012 -2.51048 168.054 46.379 -39.6036 -3.34781e-006 -6.43749e-005 6.82532e-006 9.63392 15.8819 -3.49657 -2.37254e-005 -4.90759e-005 -2.99999 8.0291 -4.9514 0.697685 -74.9691 -1.86288 2.69118 -55.1299 44.9515 -6.72865 4.6444e-006 4.63005e-006 5.45929e-006 -22.3266 44.071 11.4398 3.96674e-006 3.23043e-006 3.00001 -8.0289 -4.9514 -0.697675 179.999 0.319713 -0.872524 180 7.01544e-015 178.91 177.971 9.67914 179.732 -2.26506e-006 1.79101e-005 0.204486 -20.5375 70.2332 21.5899 8.20089 25.9827 -4.0593 179.985 11.2711 5.97818 4.54188e-006 -4.6773e-006 -0.96041 1.48008 -12.8451 0.607439 2.20926e-006 -2.10354e-006 -0.0178967 17.5152 66.2209 -18.1548 -8.14552 25.2321 3.49159 
42.1514 93.2551 13.0026 1.01108 2.79167 69.1214 -0.158243 -0.36617 0.340384 -0.311143 3.26956 0.699933 -0.319908 4.91456 0.705862 -19.3457 -10.1882 -3.95984 17.1152 9.66307 -5.04899 49.9856 -5.02192 -2.51245 167.952 46.3099 -39.712 -3.34781e-006 -6.43749e-005 6.82532e-006 9.79819 16.0788 -3.53334 -2.37254e-005 -4.90759e-005 -2.99999 8.0291 -4.9514 0.697685 -74.8771 -1.8852 2.69286 -55.1465 44.9574 -6.75559 4.6444e-006 4.63005e-006 5.45929e-006 -22.3354 43.7606 11.3449 3.96674e-006 3.23043e-006 3.00001 -8.0289 -4.9514 -0.697675 -179.984 0.321869 -0.880425 180 7.01544e-015 178.91 177.965 9.66221 179.734 -2.26506e-006 1.79101e-005 0.204493 -20.5354 70.2317 21.5885 8.20034 25.9749 -4.0533 179.959 11.3417 5.95533 4.54188e-006 -4.6773e-006 -0.959663 1.42224 -12.9433 0.604926 2.20926e-006 -2.10354e-006 -0.0224784 17.5249 66.2385 -18.1682 -8.14552 25.2321 3.49159 
42.1531 93.2585 13.0208 1.0076 2.8041 69.2052 -0.158719 -0.364246 0.340766 -0.311872 3.27341 0.700743 -0.320655 4.91841 0.706676 -19.3221 -10.1627 -3.93425 17.0766 9.62203 -5.01992 49.9114 -5.03178 -2.5144 167.85 46.241 -39.8219 -3.34781e-006 -6.43749e-005 6.82532e-006 9.96371 16.2748 -3.57008 -2.37254e-005 -4.90759e-005 -2.99999 8.0291 -4.9514 0.697685 -74.7855 -1.90756 2.69459 -55.1627 44.9633 -6.7824 4.6444e-006 4.63005e-006 5.45929e-006 -22.3459 43.4498 11.2512 3.96674e-006 3.23043e-006 3.00001 -8.0289 -4.9514 -0.697675 -179.967 0.323927 -0.888316 180 7.01544e-015 178.91 177.959 9.64538 179.735 -2.26506e-006 1.79101e-005 0.204497 -20.5334 70.2303 21.5871 8.1998 25.9672 -4.04734 179.932 11.4118 5.93232 4.54188e-006 -4.6773e-006 -0.958915 1.36426 -13.0409 0.602366 2.20926e-006 -2.10354e-006 -0.0270482 17.5345 66.2561 -18.1816 -8.14552 25.2321 3.49159 
42.1059 93.2614 13.0474 1.00437 2.81625 69.2888 -0.159221 -0.36236 0.341167 -0.312665 3.27717 0.701597 -0.321466 4.92217 0.707537 -19.298 -10.1359 -3.90868 17.0383 9.58035 -4.99096 49.8376 -5.04152 -2.5163 167.747 46.1729 -39.9359 -3.34781e-006 -6.43749e-005 6.82532e-006 10.1319 16.4681 -3.60655 -2.37254e-005 -4.90759e-005 -2.99999 8.0291 -4.9514 0.697685 -74.6949 -1.93002 2.69647 -55.1782 44.9693 -6.80887 4.6444e-006 4.63005e-006 5.45929e-006 -22.3581 43.1383 11.1584 3.96674e-006 3.23043e-006 3.00001 -8.0289 -4.9514 -0.697675 -179.95 0.325742 -0.896183 180 7.01544e-015 178.91 177.953 9.62879 179.736 -2.26506e-006 1.79101e-005 0.204492 -20.5314 70.229 21.5857 8.19927 25.9596 -4.04152 179.906 11.4806 5.9089 4.54188e-006 -4.6773e-006 -0.958166 1.30594 -13.1372 0.599689 2.20926e-006 -2.10354e-006 -0.0315885 17.5441 66.2736 -18.195 -8.14552 25.2321 3.49159 
42.0731 93.2549 13.075 1.00159 2.82806 69.3718 -0.159761 -0.360535 0.341601 -0.313559 3.28081 0.702522 -0.322378 4.92581 0.70847 -19.2732 -10.1072 -3.88313 17.0006 9.53765 -4.96213 49.7647 -5.05108 -2.51812 167.642 46.1061 -40.0568 -3.34781e-006 -6.43749e-005 6.82532e-006 10.3044 16.6574 -3.64255 -2.37254e-005 -4.90759e-005 -2.99999 8.0291 -4.9514 0.697685 -74.6059 -1.95264 2.69857 -55.1923 44.9754 -6.83479 4.6444e-006 4.63005e-006 5.45929e-006 -22.3725 42.8257 11.0665 3.96674e-006 3.23043e-006 3.00001 -8.0289 -4.9514 -0.697675 -179.933 0.327166 -0.904011 180 7.01544e-015 178.91 177.948 9.61262 179.738 -2.26506e-006 1.79101e-005 0.204473 -20.5296 70.2278 21.5845 8.19876 25.9523 -4.0359 179.881 11.5472 5.88483 4.54188e-006 -4.6773e-006 -0.957414 1.24708 -13.2312 0.596826 2.20926e-006 -2.10354e-006 -0.0360817 17.5535 66.2908 -18.2081 -8.14552 25.2321 3.49159 
